<svg xmlns="http://www.w3.org/2000/svg" xmlns:v="https://svgstorm.com"
viewBox = "0 0 500 500"
width="500"
height="500">
<g fill="None" fill-opacity="0.0" stroke="#000000" stroke-opacity="0.00" stroke-width="0.3"><path d="
M 0.00 500.00 
L 500.00 500.00
L 500.00 0.00
L 0.00 0.00
L 0.00 500.00
M 20.00 240.00 
C 20.00 166.33 20.00 92.67 20.00 19.00
C 53.27 18.76 97.86 19.33 130.00 19.00 C 162.14 18.67 187.15 30.18 208.75 51.25 C 230.36 72.31 240.64 99.68 241.00 129.00 C 241.36 158.32 230.07 186.43 208.25 207.25 C 186.43 228.07 163.31 239.76 131.00 240.00 C 98.69 240.24 53.48 239.82 20.00 240.00
M 377.00 19.00 
C 436.14 24.72 481.18 81.01 475.00 141.00 C 468.82 200.99 413.77 244.71 353.99 239.01 C 294.22 233.31 248.92 178.42 255.00 118.00 C 261.08 57.58 316.08 13.10 377.00 19.00
M 241.00 257.00 
C 240.83 290.33 241.22 334.78 241.00 367.00 C 240.78 399.22 229.57 423.63 208.75 445.75 C 187.93 467.87 160.47 477.84 131.00 478.00 C 101.53 478.16 72.60 468.35 51.75 446.25 C 30.90 424.14 19.88 400.45 20.00 368.00 C 20.12 335.55 19.91 290.58 20.00 257.00
C 93.67 257.00 167.33 257.00 241.00 257.00
M 475.00 257.00 
C 475.00 330.67 475.00 404.33 475.00 478.00
C 441.58 478.23 397.34 477.69 365.00 478.00 C 332.66 478.31 308.88 467.09 286.75 446.25 C 264.63 425.40 255.05 397.53 255.00 368.00 C 254.95 338.47 264.51 310.53 286.75 289.75 C 308.99 268.98 331.58 257.50 364.00 257.00 C 396.43 256.50 441.43 257.37 475.00 257.00 Z"/>
</g>
<g fill="None" fill-opacity="0.0" stroke="#F4F4F4" stroke-opacity="0.99" stroke-width="0.3"><path d="
M 20.00 240.00 
C 53.48 239.82 98.69 240.24 131.00 240.00 C 163.31 239.76 186.43 228.07 208.25 207.25 C 230.07 186.43 241.36 158.32 241.00 129.00 C 240.64 99.68 230.36 72.31 208.75 51.25 C 187.15 30.18 162.14 18.67 130.00 19.00 C 97.86 19.33 53.27 18.76 20.00 19.00
C 20.00 92.67 20.00 166.33 20.00 240.00 Z"/>
</g>
<g fill="None" fill-opacity="0.0" stroke="#F4F4F4" stroke-opacity="0.99" stroke-width="0.3"><path d="
M 377.00 19.00 
C 316.08 13.10 261.08 57.58 255.00 118.00 C 248.92 178.42 294.22 233.31 353.99 239.01 C 413.77 244.71 468.82 200.99 475.00 141.00 C 481.18 81.01 436.14 24.72 377.00 19.00 Z"/>
</g>
<g fill="None" fill-opacity="0.0" stroke="#F4F4F4" stroke-opacity="0.99" stroke-width="0.3"><path d="
M 241.00 257.00 
C 167.33 257.00 93.67 257.00 20.00 257.00
C 19.91 290.58 20.12 335.55 20.00 368.00 C 19.88 400.45 30.90 424.14 51.75 446.25 C 72.60 468.35 101.53 478.16 131.00 478.00 C 160.47 477.84 187.93 467.87 208.75 445.75 C 229.57 423.63 240.78 399.22 241.00 367.00 C 241.22 334.78 240.83 290.33 241.00 257.00 Z"/>
</g>
<g fill="None" fill-opacity="0.0" stroke="#F4F4F4" stroke-opacity="0.99" stroke-width="0.3"><path d="
M 475.00 257.00 
C 441.43 257.37 396.43 256.50 364.00 257.00 C 331.58 257.50 308.99 268.98 286.75 289.75 C 264.51 310.53 254.95 338.47 255.00 368.00 C 255.05 397.53 264.63 425.40 286.75 446.25 C 308.88 467.09 332.66 478.31 365.00 478.00 C 397.34 477.69 441.58 478.23 475.00 478.00
C 475.00 404.33 475.00 330.67 475.00 257.00 Z"/>
</g>
<g fill="#000000" fill-opacity="0.00" stroke="None">
<path d="
M 0.00 500.00 
L 500.00 500.00
L 500.00 0.00
L 0.00 0.00
L 0.00 500.00
M 20.00 240.00 
C 20.00 166.33 20.00 92.67 20.00 19.00
C 53.27 18.76 97.86 19.33 130.00 19.00 C 162.14 18.67 187.15 30.18 208.75 51.25 C 230.36 72.31 240.64 99.68 241.00 129.00 C 241.36 158.32 230.07 186.43 208.25 207.25 C 186.43 228.07 163.31 239.76 131.00 240.00 C 98.69 240.24 53.48 239.82 20.00 240.00
M 377.00 19.00 
C 436.14 24.72 481.18 81.01 475.00 141.00 C 468.82 200.99 413.77 244.71 353.99 239.01 C 294.22 233.31 248.92 178.42 255.00 118.00 C 261.08 57.58 316.08 13.10 377.00 19.00
M 241.00 257.00 
C 240.83 290.33 241.22 334.78 241.00 367.00 C 240.78 399.22 229.57 423.63 208.75 445.75 C 187.93 467.87 160.47 477.84 131.00 478.00 C 101.53 478.16 72.60 468.35 51.75 446.25 C 30.90 424.14 19.88 400.45 20.00 368.00 C 20.12 335.55 19.91 290.58 20.00 257.00
C 93.67 257.00 167.33 257.00 241.00 257.00
M 475.00 257.00 
C 475.00 330.67 475.00 404.33 475.00 478.00
C 441.58 478.23 397.34 477.69 365.00 478.00 C 332.66 478.31 308.88 467.09 286.75 446.25 C 264.63 425.40 255.05 397.53 255.00 368.00 C 254.95 338.47 264.51 310.53 286.75 289.75 C 308.99 268.98 331.58 257.50 364.00 257.00 C 396.43 256.50 441.43 257.37 475.00 257.00 Z"/>
</g>
<g fill="#F4F4F4" fill-opacity="0.99" stroke="None">
<path d="
M 20.00 240.00 
C 53.48 239.82 98.69 240.24 131.00 240.00 C 163.31 239.76 186.43 228.07 208.25 207.25 C 230.07 186.43 241.36 158.32 241.00 129.00 C 240.64 99.68 230.36 72.31 208.75 51.25 C 187.15 30.18 162.14 18.67 130.00 19.00 C 97.86 19.33 53.27 18.76 20.00 19.00
C 20.00 92.67 20.00 166.33 20.00 240.00 Z"/>
</g>
<g fill="#F4F4F4" fill-opacity="0.99" stroke="None">
<path d="
M 377.00 19.00 
C 316.08 13.10 261.08 57.58 255.00 118.00 C 248.92 178.42 294.22 233.31 353.99 239.01 C 413.77 244.71 468.82 200.99 475.00 141.00 C 481.18 81.01 436.14 24.72 377.00 19.00 Z"/>
</g>
<g fill="#F4F4F4" fill-opacity="0.99" stroke="None">
<path d="
M 241.00 257.00 
C 167.33 257.00 93.67 257.00 20.00 257.00
C 19.91 290.58 20.12 335.55 20.00 368.00 C 19.88 400.45 30.90 424.14 51.75 446.25 C 72.60 468.35 101.53 478.16 131.00 478.00 C 160.47 477.84 187.93 467.87 208.75 445.75 C 229.57 423.63 240.78 399.22 241.00 367.00 C 241.22 334.78 240.83 290.33 241.00 257.00 Z"/>
</g>
<g fill="#F4F4F4" fill-opacity="0.99" stroke="None">
<path d="
M 475.00 257.00 
C 441.43 257.37 396.43 256.50 364.00 257.00 C 331.58 257.50 308.99 268.98 286.75 289.75 C 264.51 310.53 254.95 338.47 255.00 368.00 C 255.05 397.53 264.63 425.40 286.75 446.25 C 308.88 467.09 332.66 478.31 365.00 478.00 C 397.34 477.69 441.58 478.23 475.00 478.00
C 475.00 404.33 475.00 330.67 475.00 257.00 Z"/>
</g>
</svg>